<?xml version="1.0" encoding="utf-8"?>
<!-- Generator: Adobe Illustrator 22.0.1, SVG Export Plug-In . SVG Version: 6.00 Build 0)  -->
<svg version="1.1" id="Layer_1" xmlns="http://www.w3.org/2000/svg" xmlns:xlink="http://www.w3.org/1999/xlink" x="0px" y="0px"
	 viewBox="0 0 800 1000" style="enable-background:new 0 0 800 1000;" xml:space="preserve">
<style type="text/css">
	.st0{fill:#FFFFFF;stroke:#000000;stroke-miterlimit:10;}
	.st1{fill:none;stroke:#000000;stroke-miterlimit:10;}
</style>
<g>
	<path class="st0" d="M82.5,128.5c0,0,26,280,264,364s363,336,363,336"/>
	<path class="st0" d="M103.4,122.7c0,0,39.7,274,244.4,373.1s328.9,344.7,328.9,344.7"/>
	<path class="st0" d="M124.3,116.9c0,0,53.3,268,224.9,382.2s294.8,353.3,294.8,353.3"/>
	<path class="st0" d="M145.2,111.2c0,0,67,262,205.3,391.3s260.7,362,260.7,362"/>
	<path class="st0" d="M166.1,105.4c0,0,80.7,256,185.8,400.4s226.6,370.7,226.6,370.7"/>
	<path class="st0" d="M186.9,99.6c0,0,94.3,250,166.2,409.6s192.4,379.3,192.4,379.3"/>
	<path class="st0" d="M207.8,93.8c0,0,108,244,146.7,418.7s158.3,388,158.3,388"/>
	<path class="st0" d="M228.7,88.1c0,0,121.7,238,127.1,427.8c5.4,189.8,124.2,396.7,124.2,396.7"/>
	<path class="st0" d="M249.6,82.3c0,0,135.3,232,107.6,436.9c-27.8,204.9,90.1,405.3,90.1,405.3"/>
	<path class="st1" d="M270.5,76.5c0,0,149,226,88,446s56,414,56,414"/>
</g>
</svg>
